# xmcd
#
# Track frame offsets:
#	150
#	9695
#	23585
#	32322
#	44000
#	53032
#	65840
#	78280
#	91292
#	101412
#	112690
#	124512
#	134107
#	147285
#	159810
#	174430
#	184260
#	197000
#	206147
#	216372
#	226892
#	236275
#	248135
#	259750
#
# Disc length: 3624 seconds
#
# Revision: 1
# Processed by: cddbd v1.5.2PL0 Copyright (c) Steve Scherf et al.
# Submitted via: audiograbber 1.83.01
#
DISCID=420e2618
DTITLE=Keely Smith - BECAUSE YOU`RE MINE with Marty Paich and his orchestra BE 
DTITLE=MY LOVE with Billy Vaughn and his orchestra
DYEAR=1900
DGENRE=
TTITLE0=Because You`re Mine(Brodszky,Cahn)
TTITLE1=Canadian Sunset(Gimbel,Heywood)
TTITLE2=No Other Love(Hammerstein,Rodgers)
TTITLE3=Memories Are Made of This(Dehr,Gilkyson,Miller)
TTITLE4=My Special Angel(Duncan)
TTITLE5=Please,Mr.Sun(Frank,Getzov)
TTITLE6=Only You(Ram,Rand)
TTITLE7=Because(DHardelot,Teschemacher)
TTITLE8=Òell Me Why(Alberts,Gold)
TTITLE9=Moments to Remember(Allen,Stillman)
TTITLE10=Prisoner of Love(Columbo,Gaskill,Robin)
TTITLE11=Òhe Loveliest Night of the Year(Aaronson,Rosas,Webster)
TTITLE12=Be My Love(Vaughn)
TTITLE13=You`re Nobody`Til Somebody Loves You(Cavanaugh,Morgan,Stock)
TTITLE14=You Made Me Love You(Vaughn)
TTITLE15=Smoke Gets in Your Eyes(Harbach,Kern)
TTITLE16=How Deep Is the Ocean?
TTITLE17=Don`t Let the Stars Get in Your Eyes(Vaughn)
TTITLE18=I`d Climb the Highest Mountain(Vaughn)
TTITLE19=Pretend(Vaughn)
TTITLE20=I`m Gonna Sit Right Down/And Write Myself a Letter(Ahlert,Young)
TTITLE21=Fascination(Vaughn)
TTITLE22=My Revire(Vaughn)
TTITLE23=I`ts All in the Game(Vaughn)
EXTD=
EXTT0=
EXTT1=
EXTT2=
EXTT3=
EXTT4=
EXTT5=
EXTT6=
EXTT7=
EXTT8=
EXTT9=
EXTT10=
EXTT11=
EXTT12=
EXTT13=
EXTT14=
EXTT15=
EXTT16=
EXTT17=
EXTT18=
EXTT19=
EXTT20=
EXTT21=
EXTT22=
EXTT23=
PLAYORDER=
